<svg xmlns="http://www.w3.org/2000/svg" viewBox="0 0 256 256" role="img" aria-label="Coffee beans">
  <defs>
    <linearGradient id="g" x1="0" x2="1">
      <stop offset="0" stop-color="#7a4b2a"/>
      <stop offset="1" stop-color="#3f2415"/>
    </linearGradient>
  </defs>
  <rect width="256" height="256" rx="24" fill="#0f0f10"/>
  <g fill="url(#g)">
    <path d="M78 48c-26 11-44 39-44 70 0 34 22 64 53 73 17 5 37 2 53-8-10-18-15-39-13-61 2-27 14-53 34-74-22-9-57-10-83 0z"/>
    <path d="M178 66c-17 6-33 22-44 43-12 24-13 50-3 71 9 19 27 31 48 31 36 0 66-36 66-80 0-31-16-57-39-65-8-3-18-3-28 0z"/>
  </g>
  <path d="M121 57c-25 27-40 55-43 82-3 25 5 48 22 66" fill="none" stroke="#e7c9b3" stroke-width="10" stroke-linecap="round" opacity=".7"/>
</svg>
